HIERARCHY
ROOT mixamorig:Hips
{
	OFFSET 0.000000 102.625267 -0.521241
	CHANNELS 6 Xposition Yposition Zposition Xrotation Yrotation Zrotation
	JOINT mixamorig:Spine
	{
		OFFSET 0.000000 5.645721 -0.031929
		CHANNELS 3 Xrotation Yrotation Zrotation
		JOINT mixamorig:Spine1
		{
			OFFSET 0.000000 6.586685 -0.037251
			CHANNELS 3 Xrotation Yrotation Zrotation
			JOINT mixamorig:Spine2
			{
				OFFSET 0.000000 7.527618 -0.042572
				CHANNELS 3 Xrotation Yrotation Zrotation
				JOINT mixamorig:Neck
				{
					OFFSET 0.000000 8.468590 -0.047894
					CHANNELS 3 Xrotation Yrotation Zrotation
					JOINT mixamorig:Head
					{
						OFFSET 0.000000 5.998901 -1.158958
						CHANNELS 3 Xrotation Yrotation Zrotation
						JOINT mixamorig:HeadTop_End
						{
							OFFSET 0.000000 21.748810 -4.201760
							CHANNELS 3 Xrotation Yrotation Zrotation
							End Site
							{
								OFFSET 0.000000 22.150970 0.000000
							}
						}
					}
				}
				JOINT mixamorig:LeftShoulder
				{
					OFFSET 3.414614 7.343132 -0.058928
					CHANNELS 3 Xrotation Yrotation Zrotation
					JOINT mixamorig:LeftArm
					{
						OFFSET 6.829548 -2.246910 -0.022071
						CHANNELS 3 Xrotation Yrotation Zrotation
						JOINT mixamorig:LeftForeArm
						{
							OFFSET 24.198503 -0.424179 0.257802
							CHANNELS 3 Xrotation Yrotation Zrotation
							JOINT mixamorig:LeftHand
							{
								OFFSET 21.584717 -0.002335 0.669575
								CHANNELS 3 Xrotation Yrotation Zrotation
								JOINT mixamorig:LeftHandThumb1
								{
									OFFSET 2.193897 -1.259628 1.956942
									CHANNELS 3 Xrotation Yrotation Zrotation
									JOINT mixamorig:LeftHandThumb2
									{
										OFFSET 1.755203 -1.007660 1.565605
										CHANNELS 3 Xrotation Yrotation Zrotation
										JOINT mixamorig:LeftHandThumb3
										{
											OFFSET 2.535126 -0.998764 1.490660
											CHANNELS 3 Xrotation Yrotation Zrotation
											JOINT mixamorig:LeftHandThumb4
											{
												OFFSET 2.398251 -0.721657 1.023775
												CHANNELS 3 Xrotation Yrotation Zrotation
												End Site
												{
													OFFSET 2.205696 -0.773872 1.362551
												}
											}
										}
									}
								}
								JOINT mixamorig:LeftHandIndex1
								{
									OFFSET 7.166248 -0.069405 2.369028
									CHANNELS 3 Xrotation Yrotation Zrotation
									JOINT mixamorig:LeftHandIndex2
									{
										OFFSET 2.989986 -0.015724 0.245918
										CHANNELS 3 Xrotation Yrotation Zrotation
										JOINT mixamorig:LeftHandIndex3
										{
											OFFSET 2.739197 -0.058952 0.219132
											CHANNELS 3 Xrotation Yrotation Zrotation
											JOINT mixamorig:LeftHandIndex4
											{
												OFFSET 2.326500 -0.032570 0.188458
												CHANNELS 3 Xrotation Yrotation Zrotation
												End Site
												{
													OFFSET 2.326485 -0.032578 0.188548
												}
											}
										}
									}
								}
								JOINT mixamorig:LeftHandMiddle1
								{
									OFFSET 7.394897 0.286369 0.654762
									CHANNELS 3 Xrotation Yrotation Zrotation
									JOINT mixamorig:LeftHandMiddle2
									{
										OFFSET 3.376106 0.152466 -0.003692
										CHANNELS 3 Xrotation Yrotation Zrotation
										JOINT mixamorig:LeftHandMiddle3
										{
											OFFSET 3.185104 -0.185410 -0.047914
											CHANNELS 3 Xrotation Yrotation Zrotation
											JOINT mixamorig:LeftHandMiddle4
											{
												OFFSET 2.742905 0.223846 0.010354
												CHANNELS 3 Xrotation Yrotation Zrotation
												End Site
												{
													OFFSET 2.742889 0.224251 0.006757
												}
											}
										}
									}
								}
								JOINT mixamorig:LeftHandRing1
								{
									OFFSET 7.508747 0.282753 -1.072900
									CHANNELS 3 Xrotation Yrotation Zrotation
									JOINT mixamorig:LeftHandRing2
									{
										OFFSET 2.821857 0.317802 -0.177266
										CHANNELS 3 Xrotation Yrotation Zrotation
										JOINT mixamorig:LeftHandRing3
										{
											OFFSET 2.672325 0.088310 -0.196165
											CHANNELS 3 Xrotation Yrotation Zrotation
											JOINT mixamorig:LeftHandRing4
											{
												OFFSET 2.272652 -0.053627 -0.183955
												CHANNELS 3 Xrotation Yrotation Zrotation
												End Site
												{
													OFFSET 2.272919 -0.054016 -0.180438
												}
											}
										}
									}
								}
								JOINT mixamorig:LeftHandPinky1
								{
									OFFSET 7.285820 0.522377 -2.660948
									CHANNELS 3 Xrotation Yrotation Zrotation
									JOINT mixamorig:LeftHandPinky2
									{
										OFFSET 2.466278 0.082008 -0.249570
										CHANNELS 3 Xrotation Yrotation Zrotation
										JOINT mixamorig:LeftHandPinky3
										{
											OFFSET 1.940475 0.021858 -0.202004
											CHANNELS 3 Xrotation Yrotation Zrotation
											JOINT mixamorig:LeftHandPinky4
											{
												OFFSET 1.645287 0.153595 -0.153405
												CHANNELS 3 Xrotation Yrotation Zrotation
												End Site
												{
													OFFSET 1.645088 0.153801 -0.155289
												}
											}
										}
									}
								}
							}
						}
					}
				}
				JOINT mixamorig:RightShoulder
				{
					OFFSET -3.414604 7.343132 -0.036860
					CHANNELS 3 Xrotation Yrotation Zrotation
					JOINT mixamorig:RightArm
					{
						OFFSET -6.829551 -2.246986 0.022068
						CHANNELS 3 Xrotation Yrotation Zrotation
						JOINT mixamorig:RightForeArm
						{
							OFFSET -24.198494 -0.424141 0.158696
							CHANNELS 3 Xrotation Yrotation Zrotation
							JOINT mixamorig:RightHand
							{
								OFFSET -21.584698 -0.002243 0.686977
								CHANNELS 3 Xrotation Yrotation Zrotation
								JOINT mixamorig:RightHandThumb1
								{
									OFFSET -2.242882 -1.296806 1.978855
									CHANNELS 3 Xrotation Yrotation Zrotation
									JOINT mixamorig:RightHandThumb2
									{
										OFFSET -1.794239 -1.037361 1.583064
										CHANNELS 3 Xrotation Yrotation Zrotation
										JOINT mixamorig:RightHandThumb3
										{
											OFFSET -2.504150 -0.962166 1.471556
											CHANNELS 3 Xrotation Yrotation Zrotation
											JOINT mixamorig:RightHandThumb4
											{
												OFFSET -2.346046 -0.743172 0.992235
												CHANNELS 3 Xrotation Yrotation Zrotation
												End Site
												{
													OFFSET -2.157112 -0.792709 1.326359
												}
											}
										}
									}
								}
								JOINT mixamorig:RightHandIndex1
								{
									OFFSET -7.174488 -0.001839 2.366265
									CHANNELS 3 Xrotation Yrotation Zrotation
									JOINT mixamorig:RightHandIndex2
									{
										OFFSET -2.935219 -0.016853 0.287245
										CHANNELS 3 Xrotation Yrotation Zrotation
										JOINT mixamorig:RightHandIndex3
										{
											OFFSET -2.786827 -0.129890 0.255971
											CHANNELS 3 Xrotation Yrotation Zrotation
											JOINT mixamorig:RightHandIndex4
											{
												OFFSET -2.343559 0.168816 0.256164
												CHANNELS 3 Xrotation Yrotation Zrotation
												End Site
												{
													OFFSET -2.344208 0.169510 0.249690
												}
											}
										}
									}
								}
								JOINT mixamorig:RightHandMiddle1
								{
									OFFSET -7.274693 0.327965 0.656181
									CHANNELS 3 Xrotation Yrotation Zrotation
									JOINT mixamorig:RightHandMiddle2
									{
										OFFSET -3.309677 0.091591 0.032863
										CHANNELS 3 Xrotation Yrotation Zrotation
										JOINT mixamorig:RightHandMiddle3
										{
											OFFSET -3.186844 -0.122513 0.000971
											CHANNELS 3 Xrotation Yrotation Zrotation
											JOINT mixamorig:RightHandMiddle4
											{
												OFFSET -2.671951 -0.322540 -0.031001
												CHANNELS 3 Xrotation Yrotation Zrotation
												End Site
												{
													OFFSET -2.671928 -0.323486 -0.021820
												}
											}
										}
									}
								}
								JOINT mixamorig:RightHandRing1
								{
									OFFSET -7.453640 0.430428 -1.170334
									CHANNELS 3 Xrotation Yrotation Zrotation
									JOINT mixamorig:RightHandRing2
									{
										OFFSET -2.808174 0.165817 -0.117934
										CHANNELS 3 Xrotation Yrotation Zrotation
										JOINT mixamorig:RightHandRing3
										{
											OFFSET -2.730080 0.127754 -0.119542
											CHANNELS 3 Xrotation Yrotation Zrotation
											JOINT mixamorig:RightHandRing4
											{
												OFFSET -2.349426 0.078133 -0.107466
												CHANNELS 3 Xrotation Yrotation Zrotation
												End Site
												{
													OFFSET -2.349503 0.077988 -0.106043
												}
											}
										}
									}
								}
								JOINT mixamorig:RightHandPinky1
								{
									OFFSET -7.364456 0.463486 -2.604800
									CHANNELS 3 Xrotation Yrotation Zrotation
									JOINT mixamorig:RightHandPinky2
									{
										OFFSET -2.430134 0.174614 -0.251330
										CHANNELS 3 Xrotation Yrotation Zrotation
										JOINT mixamorig:RightHandPinky3
										{
											OFFSET -1.953583 0.007492 -0.220999
											CHANNELS 3 Xrotation Yrotation Zrotation
											JOINT mixamorig:RightHandPinky4
											{
												OFFSET -1.582039 0.276558 -0.139972
												CHANNELS 3 Xrotation Yrotation Zrotation
												End Site
												{
													OFFSET -1.581284 0.277252 -0.147002
												}
											}
										}
									}
								}
							}
						}
					}
				}
			}
		}
	}
	JOINT mixamorig:LeftUpLeg
	{
		OFFSET 6.620181 -8.816864 -0.447179
		CHANNELS 3 Xrotation Yrotation Zrotation
		JOINT mixamorig:LeftLeg
		{
			OFFSET 2.748989 -36.076775 0.650871
			CHANNELS 3 Xrotation Yrotation Zrotation
			JOINT mixamorig:LeftFoot
			{
				OFFSET 1.089303 -46.239017 1.019056
				CHANNELS 3 Xrotation Yrotation Zrotation
				JOINT mixamorig:LeftToeBase
				{
					OFFSET -0.371088 -10.380511 12.650617
					CHANNELS 3 Xrotation Yrotation Zrotation
					JOINT mixamorig:LeftToe_End
					{
						OFFSET -0.094684 -0.116785 6.663326
						CHANNELS 3 Xrotation Yrotation Zrotation
						End Site
						{
							OFFSET -0.094684 -0.116785 6.663326
						}
					}
				}
			}
		}
	}
	JOINT mixamorig:RightUpLeg
	{
		OFFSET -6.620174 -8.816818 -0.447182
		CHANNELS 3 Xrotation Yrotation Zrotation
		JOINT mixamorig:RightLeg
		{
			OFFSET -2.748991 -36.076790 0.753614
			CHANNELS 3 Xrotation Yrotation Zrotation
			JOINT mixamorig:RightFoot
			{
				OFFSET -1.089311 -46.239029 0.372114
				CHANNELS 3 Xrotation Yrotation Zrotation
				JOINT mixamorig:RightToeBase
				{
					OFFSET 0.371103 -10.380659 13.284531
					CHANNELS 3 Xrotation Yrotation Zrotation
					JOINT mixamorig:RightToe_End
					{
						OFFSET 0.094689 -0.116865 6.675873
						CHANNELS 3 Xrotation Yrotation Zrotation
						End Site
						{
							OFFSET 0.094687 -0.116865 6.675871
						}
					}
				}
			}
		}
	}
}
MOTION
Frames: 5
Frame Time: 0.016667
-12.733955 91.974396 -6.709824 2.559921 10.136554 5.263205 20.960703 -2.197446 -0.284348 2.558127 -0.458248 -0.891273 2.562639 -0.408482 -0.889117 6.437976 -0.617228 -2.886031 -17.284396 -1.356937 -9.004366 0.000001 -0.000000 -0.000001 -4.105051 -20.365329 -12.951807 -2.892395 21.883050 -13.139435 -7.234633 -123.622599 -1.682101 -13.085331 8.476513 8.080857 12.571078 17.898734 -10.679466 -11.566775 39.056296 23.438561 -19.344014 44.628015 27.488955 0.000001 -0.000000 -0.000001 -5.429001 1.359484 -60.562584 14.760686 7.937922 -80.695823 6.202800 6.777122 -41.567718 -0.000002 -0.000001 -0.000001 5.263545 7.591639 -62.195573 8.848128 11.977993 -76.409647 2.678845 7.692483 -43.004941 0.000002 0.000001 -0.000000 14.013191 12.008470 -68.447341 5.505722 15.525312 -83.302661 -0.389312 7.742860 -35.827689 0.000000 -0.000001 -0.000001 15.858673 14.771664 -63.509319 3.891128 16.667427 -80.879070 -1.254830 9.251820 -42.195744 0.000001 -0.000000 -0.000000 2.804902 19.090112 -3.873666 24.997803 18.469120 3.169375 -8.020632 82.966704 8.077725 18.732776 26.405388 -28.136498 0.407065 -12.186820 13.525101 -14.125103 -48.190437 -27.528746 -23.690305 -39.554148 -30.864354 -0.000002 -0.000002 0.000002 -4.395648 -0.796101 60.994484 14.035632 -5.148807 81.126487 8.831910 -5.663548 55.388357 0.000001 0.000001 0.000002 4.835729 -5.994498 61.805658 7.589807 -9.233195 74.792962 1.213746 -4.343307 25.754316 0.000002 -0.000000 -0.000000 11.056475 -9.155154 65.190802 5.666110 -12.131711 84.192245 0.260254 -6.638056 38.488649 -0.000001 0.000000 0.000001 8.127731 -7.730312 63.661099 0.322873 -13.497187 72.201998 -1.030383 -11.426764 60.820704 0.000000 -0.000001 0.000000 -40.871623 29.109460 8.184209 59.053276 -7.645085 7.921075 -21.044352 -23.754189 3.022455 0.620129 0.010662 -0.777646 0.000000 0.000000 -0.000000 -39.032947 -11.855498 -11.992772 60.843496 2.155101 -8.440162 -26.934284 1.178465 2.579249 -3.779612 0.000003 0.000005 -0.000000 -0.000000 -0.000000 
-12.292403 91.685791 -6.793118 4.045673 8.174691 7.836732 19.999581 -1.490555 -2.319629 2.576766 -0.074619 -1.289438 2.575734 -0.025199 -1.307186 6.532753 -0.672939 -3.321854 -17.509082 -0.803033 -10.368966 0.000002 0.000001 0.000001 -4.334897 -17.478814 -15.166076 -1.979301 22.157183 -14.428740 -9.163211 -124.095699 -3.549255 -13.096423 9.666799 7.757028 12.551231 17.887021 -10.679401 -11.561746 39.043827 23.430834 -19.320406 44.598810 27.471788 0.000001 -0.000001 0.000003 -5.430503 1.342711 -60.504520 14.756415 7.938853 -80.676391 6.202635 6.777040 -41.566834 0.000001 -0.000001 -0.000001 5.252676 7.584086 -62.125645 8.848090 11.977980 -76.409456 2.678826 7.692460 -43.004814 0.000003 0.000000 0.000001 13.999307 12.013372 -68.372270 5.505517 15.525220 -83.301575 -0.389315 7.742847 -35.827607 0.000000 -0.000001 -0.000000 15.848177 14.757223 -63.426953 3.891097 16.667405 -80.878865 -1.254841 9.251771 -42.195532 0.000001 0.000000 0.000001 3.248358 21.673070 -5.515251 24.169026 17.445777 3.179488 -13.348316 85.735062 13.380321 18.671034 26.766509 -27.876464 0.353025 -12.189102 13.516675 -14.129095 -48.193859 -27.535616 -23.690955 -39.559930 -30.876710 -0.000001 -0.000001 0.000001 -4.409784 -0.778163 60.952144 14.035753 -5.148756 81.127081 8.831914 -5.663556 55.388388 0.000000 -0.000001 -0.000001 4.830021 -5.991062 61.760900 7.591690 -9.233626 74.804334 1.213764 -4.343330 25.754384 -0.000002 -0.000000 0.000001 11.066819 -9.165259 65.152375 5.671955 -12.134122 84.228773 0.260265 -6.638062 38.488751 0.000002 -0.000001 -0.000001 8.141086 -7.740026 63.627283 0.328331 -13.504083 72.246818 -1.030401 -11.426711 60.820471 -0.000002 -0.000000 -0.000001 -40.943098 31.865380 6.599838 58.769980 -7.633432 6.894978 -20.958080 -23.312021 3.849550 0.650491 0.010114 -0.757694 -0.000000 0.000000 0.000000 -41.436951 -7.606695 -13.059865 61.981617 1.758075 -8.660751 -27.011639 1.109034 3.446782 -3.800375 0.000003 0.000005 0.000001 -0.000000 -0.000000 
-11.951614 91.102005 -6.906296 5.321335 6.356697 10.497655 19.452886 -0.715769 -4.452392 2.655348 0.338005 -1.679172 2.648029 0.385449 -1.717696 6.600383 -0.743028 -3.618367 -18.009377 -0.533014 -11.535698 0.000001 0.000000 -0.000000 -4.358870 -14.821551 -16.912503 -1.976581 22.336189 -15.066098 -11.370901 -124.265866 -5.701613 -12.967328 10.359040 6.965028 12.531708 17.875327 -10.679288 -11.556714 39.031270 23.423116 -19.297603 44.570017 27.455890 0.000002 0.000003 -0.000001 -5.431970 1.326011 -60.446696 14.752215 7.939760 -80.657164 6.202493 6.776975 -41.566168 0.000001 -0.000000 0.000000 5.241883 7.576581 -62.055964 8.848123 11.977982 -76.409524 2.678847 7.692478 -43.004906 -0.000001 -0.000000 0.000000 13.985479 12.018259 -68.297452 5.505378 15.525140 -83.300707 -0.389306 7.742875 -35.827703 0.000000 -0.000001 -0.000000 15.837713 14.742752 -63.344800 3.891115 16.667417 -80.879016 -1.254836 9.251778 -42.195433 0.000000 0.000002 0.000001 4.088079 23.882250 -7.607339 22.324263 16.732517 3.745293 -40.449504 88.479637 40.455555 18.631083 26.471003 -26.847406 0.298690 -12.192028 13.507349 -14.133163 -48.197380 -27.542588 -23.692581 -39.567166 -30.890203 -0.000002 -0.000003 -0.000001 -4.423934 -0.760256 60.910152 14.035923 -5.148691 81.128058 8.831988 -5.663574 55.388825 -0.000001 -0.000000 -0.000001 4.824341 -5.987627 61.716428 7.593651 -9.234048 74.816089 1.213799 -4.343402 25.754908 -0.000000 -0.000000 0.000000 11.077156 -9.175345 65.114324 5.677837 -12.136547 84.265540 0.260288 -6.638125 38.489100 0.000001 0.000001 0.000001 8.154452 -7.749744 63.593815 0.333847 -13.511052 72.292109 -1.030380 -11.426749 60.820656 0.000001 0.000000 -0.000001 -41.223603 34.101243 5.239359 59.252724 -7.524668 5.560577 -21.094517 -22.837245 4.723578 0.667034 0.010018 -0.754209 -0.000000 -0.000000 -0.000000 -43.831868 -3.142373 -14.140220 63.793120 1.336683 -8.642901 -27.283614 1.104461 4.192805 -3.814308 0.000003 0.000008 -0.000000 -0.000000 0.000000 
-11.711708 90.249939 -7.085887 6.285372 4.724596 13.226450 19.457127 0.045230 -6.617416 2.789131 0.758516 -2.055458 2.775317 0.802546 -2.115664 6.634024 -0.825703 -3.771903 -18.774020 -0.528953 -12.535877 -0.000000 0.000000 -0.000001 -4.257096 -12.516002 -18.144590 -2.435738 22.472178 -15.342703 -13.901978 -124.129017 -8.118157 -12.744419 10.454190 5.876445 12.512428 17.863696 -10.679098 -11.551686 39.018719 23.415398 -19.275610 44.541532 27.441175 0.000001 0.000001 -0.000000 -5.433424 1.309378 -60.389152 14.748089 7.940662 -80.638279 6.202418 6.776941 -41.565806 0.000006 -0.000000 0.000001 5.231157 7.569089 -61.986590 8.848177 11.977999 -76.409900 2.678893 7.692541 -43.005306 0.000000 0.000000 0.000000 13.971681 12.023075 -68.222948 5.505264 15.525080 -83.300202 -0.389282 7.742952 -35.828071 0.000001 -0.000001 -0.000001 15.827271 14.728195 -63.262988 3.891223 16.667494 -80.879535 -1.254834 9.251786 -42.195604 0.000000 -0.000000 -0.000000 5.305574 25.705543 -10.089885 19.445596 16.210187 4.683555 28.856856 92.043527 -28.877715 18.623247 25.729387 -25.112179 0.244231 -12.195456 13.497296 -14.137232 -48.200932 -27.549539 -23.694853 -39.575376 -30.904390 -0.000001 -0.000002 0.000001 -4.438117 -0.742313 60.868296 14.036137 -5.148594 81.129274 8.832131 -5.663584 55.389504 0.000004 0.000000 -0.000004 4.818638 -5.984158 61.672128 7.595635 -9.234504 74.828083 1.213881 -4.343536 25.755784 -0.000002 -0.000000 -0.000000 11.087484 -9.185414 65.076403 5.683760 -12.138995 84.302600 0.260335 -6.638218 38.489711 -0.000000 0.000000 0.000000 8.167801 -7.759459 63.560504 0.339391 -13.518071 72.337769 -1.030319 -11.426888 60.821380 -0.000000 0.000000 0.000000 -41.598120 35.909153 4.062964 60.385457 -7.407461 4.073595 -21.489616 -22.299453 5.587341 0.694245 0.009603 -0.738557 0.000000 0.000000 0.000000 -46.140192 1.285237 -15.244977 66.181152 0.991813 -8.474690 -27.780358 1.150738 4.806840 -3.815759 0.000003 0.000009 0.000000 -0.000000 -0.000000 
-11.559361 89.187317 -7.352573 6.853760 3.343022 15.873481 20.050977 0.694509 -8.657693 2.965254 1.151707 -2.397540 2.945547 1.191585 -2.479390 6.630918 -0.914174 -3.798783 -19.740343 -0.727570 -13.388362 0.000001 0.000002 -0.000001 -4.090298 -10.630052 -18.837465 -2.900617 22.528431 -15.573436 -16.796473 -123.727948 -10.785252 -12.497419 9.952729 4.677422 12.493185 17.852057 -10.678931 -11.546648 39.006111 23.407649 -19.253936 44.512927 27.426785 0.000001 0.000005 0.000000 -5.434815 1.292851 -60.331867 14.744015 7.941538 -80.619646 6.202403 6.776925 -41.565693 0.000001 0.000001 0.000000 5.220454 7.561574 -61.917454 8.848284 11.978042 -76.410556 2.678985 7.692643 -43.005921 0.000000 -0.000000 0.000000 13.957872 12.027862 -68.148704 5.505197 15.525063 -83.299963 -0.389253 7.743078 -35.828628 0.000000 0.000002 -0.000002 15.816857 14.713585 -63.181463 3.891363 16.667596 -80.880341 -1.254796 9.251917 -42.196069 -0.000000 -0.000000 -0.000000 6.789911 27.131057 -12.770907 15.764579 15.729921 5.795547 12.262491 94.635522 -12.308071 18.748675 24.697397 -22.910937 0.189985 -12.198964 13.487210 -14.141259 -48.204487 -27.556473 -23.696990 -39.583313 -30.918467 -0.000002 -0.000003 -0.000000 -4.452365 -0.724263 60.826345 14.036354 -5.148524 81.130387 8.832263 -5.663583 55.390129 0.000000 0.000000 -0.000001 4.812897 -5.980652 61.627636 7.597632 -9.234952 74.840145 1.213948 -4.343680 25.756749 0.000000 -0.000001 0.000000 11.097790 -9.195534 65.038311 5.689713 -12.141433 84.339736 0.260371 -6.638334 38.490360 -0.000001 -0.000000 -0.000003 8.181086 -7.769173 63.527009 0.344965 -13.525085 72.383408 -1.030220 -11.427089 60.822555 0.000000 -0.000001 0.000001 -42.032325 37.336300 3.068609 62.068203 -7.328588 2.657607 -22.087514 -21.685296 6.403385 0.718761 0.009161 -0.721334 0.000000 -0.000000 -0.000000 -48.258548 5.369982 -16.303062 68.969802 0.749630 -8.238384 -28.456011 1.231719 5.298435 -3.802030 0.000000 0.000003 0.000000 -0.000000 0.000000 
